<svg width="1820" height="354" viewBox="0 0 1820 354" fill="none" xmlns="http://www.w3.org/2000/svg">
<mask id="mask0_76_248" style="mask-type:luminance" maskUnits="userSpaceOnUse" x="0" y="0" width="1820" height="354">
<path d="M1820 0H0V353.398H1820V0Z" fill="white"/>
</mask>
<g mask="url(#mask0_76_248)">
<mask id="mask1_76_248" style="mask-type:luminance" maskUnits="userSpaceOnUse" x="0" y="0" width="1820" height="354">
<path d="M1820 0H0V353.398H1820V0Z" fill="white"/>
</mask>
<g mask="url(#mask1_76_248)">
<path d="M49.0303 143.413C49.0303 143.413 337.334 272.989 754.125 127.319C1127.95 -5.10342 1402.76 180.281 1402.76 180.281C1402.76 180.281 1579.89 279.336 1738.79 138.048C1897.68 -3.23878 1723.16 352.416 1723.16 352.416H0L49.0303 143.413Z" fill="#AEA8FF"/>
</g>
<mask id="mask2_76_248" style="mask-type:luminance" maskUnits="userSpaceOnUse" x="0" y="0" width="1820" height="354">
<path d="M1820 0H0V353.398H1820V0Z" fill="white"/>
</mask>
<g mask="url(#mask2_76_248)">
<g opacity="0.41">
<mask id="mask3_76_248" style="mask-type:luminance" maskUnits="userSpaceOnUse" x="94" y="0" width="859" height="197">
<path d="M952.635 0H94.458V196.507H952.635V0Z" fill="white"/>
</mask>
<g mask="url(#mask3_76_248)">
<path d="M754.126 127.319C824.147 102.523 890.7 88.8489 952.635 83.0588C579.987 -127.842 149.389 125.389 94.458 159.542C191.19 189.016 434.99 238.87 754.126 127.319Z" fill="#AEA8FF"/>
</g>
</g>
</g>
<mask id="mask4_76_248" style="mask-type:luminance" maskUnits="userSpaceOnUse" x="0" y="0" width="1820" height="354">
<path d="M1820 0H0V353.398H1820V0Z" fill="white"/>
</mask>
<g mask="url(#mask4_76_248)">
<g opacity="0.61">
<mask id="mask5_76_248" style="mask-type:luminance" maskUnits="userSpaceOnUse" x="187" y="0" width="1634" height="326">
<path d="M1820.02 0.425293H187.563V325.723H1820.02V0.425293Z" fill="white"/>
</mask>
<g mask="url(#mask5_76_248)">
<path d="M1820 325.69C1814.35 308.548 1799.05 288.593 1772.66 265.433C1770.18 263.241 1767.7 261.147 1765.23 259.021C1754.55 284.701 1743.81 308.548 1735.86 325.69H1820Z" fill="#AEA8FF"/>
</g>
<mask id="mask6_76_248" style="mask-type:luminance" maskUnits="userSpaceOnUse" x="187" y="0" width="1634" height="326">
<path d="M1820.02 0.425293H187.563V325.723H1820.02V0.425293Z" fill="white"/>
</mask>
<g mask="url(#mask6_76_248)">
<path d="M754.126 127.318C1127.95 -5.1036 1402.76 180.281 1402.76 180.281C1402.76 180.281 1533.9 253.623 1671.74 184.075C1333.08 -64.6739 1053.33 -22.7032 782.796 87.6049C485.821 208.676 187.563 178.416 187.563 178.416V181.589C311.524 203.605 510.933 212.339 754.126 127.318Z" fill="#AEA8FF"/>
</g>
</g>
</g>
<mask id="mask7_76_248" style="mask-type:luminance" maskUnits="userSpaceOnUse" x="0" y="0" width="1820" height="354">
<path d="M1820 0H0V353.398H1820V0Z" fill="white"/>
</mask>
<g mask="url(#mask7_76_248)">
<g opacity="0.51">
<mask id="mask8_76_248" style="mask-type:luminance" maskUnits="userSpaceOnUse" x="1381" y="167" width="327" height="187">
<path d="M1707.03 167.719H1381.66V353.398H1707.03V167.719Z" fill="white"/>
</mask>
<g mask="url(#mask8_76_248)">
<path d="M1702.57 352.449L1706.65 353.399C1706.65 353.399 1706.78 353.039 1707.03 352.449H1702.57Z" fill="#AEA8FF"/>
</g>
<mask id="mask9_76_248" style="mask-type:luminance" maskUnits="userSpaceOnUse" x="1381" y="167" width="327" height="187">
<path d="M1707.03 167.719H1381.66V353.398H1707.03V167.719Z" fill="white"/>
</mask>
<g mask="url(#mask9_76_248)">
<path d="M1402.76 180.281C1402.76 180.281 1537.3 255.488 1677.05 181.328C1591.47 193.268 1454.2 177.762 1381.63 167.719C1395.44 175.374 1402.76 180.281 1402.76 180.281Z" fill="#AEA8FF"/>
</g>
</g>
</g>
</g>
</svg>
