<svg width="1820" height="335" viewBox="0 0 1820 335" fill="none" xmlns="http://www.w3.org/2000/svg">
<mask id="mask0_76_185" style="mask-type:luminance" maskUnits="userSpaceOnUse" x="0" y="0" width="1820" height="335">
<path d="M1820 0H0V334.536H1820V0Z" fill="white"/>
</mask>
<g mask="url(#mask0_76_185)">
<mask id="mask1_76_185" style="mask-type:luminance" maskUnits="userSpaceOnUse" x="0" y="0" width="1820" height="335">
<path d="M1820 0H0V334.536H1820V0Z" fill="white"/>
</mask>
<g mask="url(#mask1_76_185)">
<path d="M49.0303 135.759C49.0303 135.759 337.334 258.419 754.125 120.523C1127.95 -4.83091 1402.76 170.659 1402.76 170.659C1402.76 170.659 1579.89 264.427 1738.79 130.681C1897.68 -3.06578 1723.16 333.607 1723.16 333.607H0L49.0303 135.759Z" fill="#AEA8FF"/>
</g>
<mask id="mask2_76_185" style="mask-type:luminance" maskUnits="userSpaceOnUse" x="0" y="0" width="1820" height="335">
<path d="M1820 0H0V334.536H1820V0Z" fill="white"/>
</mask>
<g mask="url(#mask2_76_185)">
<g opacity="0.41">
<mask id="mask3_76_185" style="mask-type:luminance" maskUnits="userSpaceOnUse" x="94" y="0" width="859" height="187">
<path d="M952.635 0H94.458V186.019H952.635V0Z" fill="white"/>
</mask>
<g mask="url(#mask3_76_185)">
<path d="M754.126 120.524C824.147 97.0511 890.7 84.1069 952.635 78.6258C579.987 -121.018 149.389 118.697 94.458 151.026C191.19 178.928 434.99 226.121 754.126 120.524Z" fill="#AEA8FF"/>
</g>
</g>
</g>
<mask id="mask4_76_185" style="mask-type:luminance" maskUnits="userSpaceOnUse" x="0" y="0" width="1820" height="335">
<path d="M1820 0H0V334.536H1820V0Z" fill="white"/>
</mask>
<g mask="url(#mask4_76_185)">
<g opacity="0.61">
<mask id="mask5_76_185" style="mask-type:luminance" maskUnits="userSpaceOnUse" x="187" y="0" width="1634" height="309">
<path d="M1820.02 0.402832H187.562V308.338H1820.02V0.402832Z" fill="white"/>
</mask>
<g mask="url(#mask5_76_185)">
<path d="M1820 308.307C1814.35 292.081 1799.05 273.191 1772.66 251.266C1770.18 249.191 1767.7 247.209 1765.23 245.197C1754.55 269.506 1743.81 292.081 1735.86 308.307H1820Z" fill="#AEA8FF"/>
</g>
<mask id="mask6_76_185" style="mask-type:luminance" maskUnits="userSpaceOnUse" x="187" y="0" width="1634" height="309">
<path d="M1820.02 0.402832H187.562V308.338H1820.02V0.402832Z" fill="white"/>
</mask>
<g mask="url(#mask6_76_185)">
<path d="M754.125 120.523C1127.94 -4.83104 1402.76 170.659 1402.76 170.659C1402.76 170.659 1533.9 240.087 1671.74 174.251C1333.07 -61.2219 1053.33 -21.4913 782.796 82.9293C485.821 197.538 187.562 168.894 187.562 168.894V171.897C311.523 192.738 510.933 201.006 754.125 120.523Z" fill="#AEA8FF"/>
</g>
</g>
</g>
<mask id="mask7_76_185" style="mask-type:luminance" maskUnits="userSpaceOnUse" x="0" y="0" width="1820" height="335">
<path d="M1820 0H0V334.536H1820V0Z" fill="white"/>
</mask>
<g mask="url(#mask7_76_185)">
<g opacity="0.51">
<mask id="mask8_76_185" style="mask-type:luminance" maskUnits="userSpaceOnUse" x="1381" y="158" width="327" height="177">
<path d="M1707.03 158.768H1381.66V334.536H1707.03V158.768Z" fill="white"/>
</mask>
<g mask="url(#mask8_76_185)">
<path d="M1702.57 333.638L1706.65 334.537C1706.65 334.537 1706.78 334.196 1707.03 333.638H1702.57Z" fill="#AEA8FF"/>
</g>
<mask id="mask9_76_185" style="mask-type:luminance" maskUnits="userSpaceOnUse" x="1381" y="158" width="327" height="177">
<path d="M1707.03 158.768H1381.66V334.536H1707.03V158.768Z" fill="white"/>
</mask>
<g mask="url(#mask9_76_185)">
<path d="M1402.76 170.659C1402.76 170.659 1537.3 241.852 1677.05 171.65C1591.47 182.953 1454.2 168.274 1381.63 158.768C1395.44 166.014 1402.76 170.659 1402.76 170.659Z" fill="#AEA8FF"/>
</g>
</g>
</g>
</g>
</svg>
